<svg width="498" height="190" viewBox="0 0 498 190" fill="none" xmlns="http://www.w3.org/2000/svg">
<circle cx="38" cy="78" r="15" fill="url(#paint0_linear_268_155)"/>
<circle cx="53" cy="42" r="15" fill="#FF64DD"/>
<circle cx="15" cy="42" r="15" fill="#FF64DD"/>
<circle cx="75" cy="78" r="15" fill="#FF64DD"/>
<circle cx="75" cy="114" r="15" fill="url(#paint1_linear_268_155)"/>
<circle cx="38" cy="114" r="15" fill="url(#paint2_linear_268_155)"/>
<circle cx="75" cy="78" r="15" fill="url(#paint3_linear_268_155)"/>
<circle cx="53" cy="42" r="15" fill="url(#paint4_linear_268_155)"/>
<circle cx="15" cy="42" r="15" fill="url(#paint5_linear_268_155)"/>
<circle cx="15" cy="147" r="15" fill="url(#paint6_linear_268_155)"/>
<circle cx="53" cy="147" r="15" fill="url(#paint7_linear_268_155)"/>
<path d="M15 57C23.2843 57 30 50.2843 30 42C30 33.7157 23.2843 27 15 27C6.71573 27 0 33.7157 0 42C0 50.2843 6.71573 57 15 57Z" fill="url(#paint8_linear_268_155)"/>
<path d="M53 57C61.2843 57 68 50.2843 68 42C68 33.7157 61.2843 27 53 27C44.7157 27 38 33.7157 38 42C38 50.2843 44.7157 57 53 57Z" fill="url(#paint9_linear_268_155)"/>
<path d="M75 93C83.2843 93 90 86.2843 90 78C90 69.7157 83.2843 63 75 63C66.7157 63 60 69.7157 60 78C60 86.2843 66.7157 93 75 93Z" fill="url(#paint10_linear_268_155)"/>
<path d="M75 129C83.2843 129 90 122.284 90 114C90 105.716 83.2843 99 75 99C66.7157 99 60 105.716 60 114C60 122.284 66.7157 129 75 129Z" fill="url(#paint11_linear_268_155)"/>
<path d="M53 162C61.2843 162 68 155.284 68 147C68 138.716 61.2843 132 53 132C44.7157 132 38 138.716 38 147C38 155.284 44.7157 162 53 162Z" fill="url(#paint12_linear_268_155)"/>
<path d="M15 162C23.2843 162 30 155.284 30 147C30 138.716 23.2843 132 15 132C6.71573 132 0 138.716 0 147C0 155.284 6.71573 162 15 162Z" fill="url(#paint13_linear_268_155)"/>
<path d="M38 129C46.2843 129 53 122.284 53 114C53 105.716 46.2843 99 38 99C29.7157 99 23 105.716 23 114C23 122.284 29.7157 129 38 129Z" fill="url(#paint14_linear_268_155)"/>
<path d="M38 93C46.2843 93 53 86.2843 53 78C53 69.7157 46.2843 63 38 63C29.7157 63 23 69.7157 23 78C23 86.2843 29.7157 93 38 93Z" fill="url(#paint15_linear_268_155)"/>
<path d="M162.84 85.41H147.805V144H128.895V85.41H117.425V66.5H128.895V42.165H147.805V66.5H162.84V85.41ZM176.929 144L176.852 66.5H195.762L195.839 73.3975C198.474 70.6075 201.626 68.4117 205.294 66.81C208.963 65.1567 212.915 64.33 217.152 64.33C219.993 64.33 222.835 64.7433 225.677 65.57L218.237 84.635C216.273 83.86 214.31 83.4725 212.347 83.4725C209.298 83.4725 206.508 84.2217 203.977 85.72C201.497 87.1667 199.508 89.1558 198.009 91.6875C196.563 94.1675 195.839 96.9317 195.839 99.98V144H176.929ZM231.877 115.325V66.5H250.787V110.365C250.787 113.413 251.536 116.203 253.034 118.735C254.533 121.215 256.522 123.204 259.002 124.702C261.533 126.149 264.298 126.872 267.294 126.872C270.394 126.872 273.184 126.149 275.664 124.702C278.144 123.204 280.133 121.215 281.632 118.735C283.13 116.203 283.879 113.413 283.879 110.365V66.5H302.789L302.867 144H283.957L283.879 136.947C281.193 139.737 278.015 141.959 274.347 143.612C270.678 145.214 266.752 146.015 262.567 146.015C256.935 146.015 251.794 144.646 247.144 141.907C242.494 139.117 238.774 135.423 235.984 130.825C233.246 126.175 231.877 121.008 231.877 115.325ZM341.243 145.395C337.213 145.137 333.312 144.336 329.54 142.992C325.82 141.597 322.513 139.712 319.62 137.335C316.727 134.958 314.505 132.117 312.955 128.81L328.92 121.99C329.54 123.023 330.548 124.134 331.943 125.322C333.338 126.459 334.991 127.415 336.903 128.19C338.866 128.965 341.01 129.352 343.335 129.352C345.298 129.352 347.158 129.094 348.915 128.577C350.723 128.009 352.17 127.157 353.255 126.02C354.392 124.883 354.96 123.411 354.96 121.602C354.96 119.691 354.288 118.218 352.945 117.185C351.653 116.1 350 115.299 347.985 114.782C346.022 114.214 344.11 113.697 342.25 113.232C337.342 112.251 332.769 110.727 328.533 108.66C324.348 106.593 320.963 103.932 318.38 100.677C315.848 97.3708 314.583 93.3925 314.583 88.7425C314.583 83.6275 315.926 79.21 318.613 75.49C321.351 71.77 324.89 68.9025 329.23 66.8875C333.622 64.8725 338.349 63.865 343.413 63.865C349.561 63.865 355.193 65.1567 360.308 67.74C365.474 70.2717 369.556 73.8625 372.553 78.5125L357.595 87.3475C356.872 86.1075 355.864 84.9708 354.573 83.9375C353.281 82.8525 351.808 81.9742 350.155 81.3025C348.502 80.5792 346.771 80.1658 344.963 80.0625C342.638 79.9592 340.519 80.1658 338.608 80.6825C336.696 81.1992 335.146 82.0775 333.958 83.3175C332.821 84.5575 332.253 86.2108 332.253 88.2775C332.253 90.2408 333.028 91.7133 334.578 92.695C336.128 93.625 337.988 94.3483 340.158 94.865C342.379 95.3817 344.498 95.95 346.513 96.57C351.059 98.0683 355.322 99.9025 359.3 102.072C363.33 104.242 366.559 106.903 368.988 110.055C371.416 113.207 372.578 116.978 372.475 121.37C372.475 126.382 370.977 130.773 367.98 134.545C364.983 138.265 361.108 141.107 356.355 143.07C351.653 145.033 346.616 145.808 341.243 145.395ZM427.278 85.41H412.243V144H393.333V85.41H381.863V66.5H393.333V42.165H412.243V66.5H427.278V85.41ZM462.942 145.395C458.912 145.137 455.011 144.336 451.239 142.992C447.519 141.597 444.213 139.712 441.319 137.335C438.426 134.958 436.204 132.117 434.654 128.81L450.619 121.99C451.239 123.023 452.247 124.134 453.642 125.322C455.037 126.459 456.69 127.415 458.602 128.19C460.565 128.965 462.709 129.352 465.034 129.352C466.998 129.352 468.858 129.094 470.614 128.577C472.423 128.009 473.869 127.157 474.954 126.02C476.091 124.883 476.659 123.411 476.659 121.602C476.659 119.691 475.988 118.218 474.644 117.185C473.353 116.1 471.699 115.299 469.684 114.782C467.721 114.214 465.809 113.697 463.949 113.232C459.041 112.251 454.468 110.727 450.232 108.66C446.047 106.593 442.663 103.932 440.079 100.677C437.548 97.3708 436.282 93.3925 436.282 88.7425C436.282 83.6275 437.625 79.21 440.312 75.49C443.05 71.77 446.589 68.9025 450.929 66.8875C455.321 64.8725 460.048 63.865 465.112 63.865C471.26 63.865 476.892 65.1567 482.007 67.74C487.173 70.2717 491.255 73.8625 494.252 78.5125L479.294 87.3475C478.571 86.1075 477.563 84.9708 476.272 83.9375C474.98 82.8525 473.508 81.9742 471.854 81.3025C470.201 80.5792 468.47 80.1658 466.662 80.0625C464.337 79.9592 462.218 80.1658 460.307 80.6825C458.395 81.1992 456.845 82.0775 455.657 83.3175C454.52 84.5575 453.952 86.2108 453.952 88.2775C453.952 90.2408 454.727 91.7133 456.277 92.695C457.827 93.625 459.687 94.3483 461.857 94.865C464.078 95.3817 466.197 95.95 468.212 96.57C472.758 98.0683 477.021 99.9025 480.999 102.072C485.029 104.242 488.258 106.903 490.687 110.055C493.115 113.207 494.278 116.978 494.174 121.37C494.174 126.382 492.676 130.773 489.679 134.545C486.683 138.265 482.808 141.107 478.054 143.07C473.353 145.033 468.315 145.808 462.942 145.395Z" fill="#F2F2F2"/>
<defs>
<linearGradient id="paint0_linear_268_155" x1="53" y1="63" x2="23" y2="93" gradientUnits="userSpaceOnUse">
<stop stop-color="#FFBC95"/>
<stop offset="1" stop-color="#FF7A00"/>
</linearGradient>
<linearGradient id="paint1_linear_268_155" x1="90" y1="99" x2="60" y2="129" gradientUnits="userSpaceOnUse">
<stop stop-color="#FFBC95"/>
<stop offset="1" stop-color="#FF7A00"/>
</linearGradient>
<linearGradient id="paint2_linear_268_155" x1="53" y1="99" x2="23" y2="129" gradientUnits="userSpaceOnUse">
<stop stop-color="#FFBC95"/>
<stop offset="1" stop-color="#FF7A00"/>
</linearGradient>
<linearGradient id="paint3_linear_268_155" x1="90" y1="63" x2="60" y2="93" gradientUnits="userSpaceOnUse">
<stop stop-color="#FFBC95"/>
<stop offset="1" stop-color="#FF7A00"/>
</linearGradient>
<linearGradient id="paint4_linear_268_155" x1="68" y1="27" x2="38" y2="57" gradientUnits="userSpaceOnUse">
<stop stop-color="#FFBC95"/>
<stop offset="1" stop-color="#FF7A00"/>
</linearGradient>
<linearGradient id="paint5_linear_268_155" x1="30" y1="27" x2="0" y2="57" gradientUnits="userSpaceOnUse">
<stop stop-color="#FFBB95"/>
<stop offset="1" stop-color="#FF7A00"/>
</linearGradient>
<linearGradient id="paint6_linear_268_155" x1="30" y1="132" x2="0" y2="162" gradientUnits="userSpaceOnUse">
<stop stop-color="#FFBC95"/>
<stop offset="1" stop-color="#FF7A00"/>
</linearGradient>
<linearGradient id="paint7_linear_268_155" x1="68" y1="132" x2="38" y2="162" gradientUnits="userSpaceOnUse">
<stop stop-color="#FFBC95"/>
<stop offset="1" stop-color="#FF7A00"/>
</linearGradient>
<linearGradient id="paint8_linear_268_155" x1="30" y1="27" x2="0" y2="57" gradientUnits="userSpaceOnUse">
<stop stop-color="#FFA895"/>
<stop offset="1" stop-color="#FF3D00"/>
</linearGradient>
<linearGradient id="paint9_linear_268_155" x1="68" y1="27" x2="38" y2="57" gradientUnits="userSpaceOnUse">
<stop stop-color="#FFA895"/>
<stop offset="1" stop-color="#FF3D00"/>
</linearGradient>
<linearGradient id="paint10_linear_268_155" x1="90" y1="63" x2="60" y2="93" gradientUnits="userSpaceOnUse">
<stop stop-color="#FFA895"/>
<stop offset="1" stop-color="#FF3D00"/>
</linearGradient>
<linearGradient id="paint11_linear_268_155" x1="90" y1="99" x2="60" y2="129" gradientUnits="userSpaceOnUse">
<stop stop-color="#FFA895"/>
<stop offset="1" stop-color="#FF3D00"/>
</linearGradient>
<linearGradient id="paint12_linear_268_155" x1="68" y1="132" x2="38" y2="162" gradientUnits="userSpaceOnUse">
<stop stop-color="#FFA895"/>
<stop offset="1" stop-color="#FF3D00"/>
</linearGradient>
<linearGradient id="paint13_linear_268_155" x1="30" y1="132" x2="0" y2="162" gradientUnits="userSpaceOnUse">
<stop stop-color="#FFA895"/>
<stop offset="1" stop-color="#FF3D00"/>
</linearGradient>
<linearGradient id="paint14_linear_268_155" x1="53" y1="99" x2="23" y2="129" gradientUnits="userSpaceOnUse">
<stop stop-color="#FFA895"/>
<stop offset="1" stop-color="#FF3D00"/>
</linearGradient>
<linearGradient id="paint15_linear_268_155" x1="53" y1="63" x2="23" y2="93" gradientUnits="userSpaceOnUse">
<stop stop-color="#FFA895"/>
<stop offset="1" stop-color="#FF3D00"/>
</linearGradient>
</defs>
</svg>
